<svg id="Capa_1" data-name="Capa 1" xmlns="http://www.w3.org/2000/svg" viewBox="0 0 737.78 195.13"><defs><style>.cls-1{fill:#fff;}</style></defs><title>progressioBlanco</title><g id="_4eQW8n.tif" data-name="4eQW8n.tif"><path class="cls-1" d="M455.54,76.83c.15-3,.29-5.65.4-8.29,0-.58.11-1,.84-1,3.55,0,7.1,0,10.8,0,0,.47.07.89.07,1.3V197.71a32,32,0,0,1-2.12,12.63,17.15,17.15,0,0,1-12.82,10.51,35.2,35.2,0,0,1-17.33-.38c-6.66-1.9-10.59-6.34-12.14-13-1.08-4.66-.95-9.38-.91-14.16h12.41c0,1.56-.07,3.09,0,4.6a32.69,32.69,0,0,0,.52,5.16,7.61,7.61,0,0,0,6.89,6.37,19,19,0,0,0,6.2-.24c3.55-.8,5.81-4,5.91-8.34.16-7.3.11-14.6.14-21.9a1.65,1.65,0,0,0-.09-.33,42.05,42.05,0,0,1-2.91,3c-3.79,3.24-8.33,4.38-13.19,4.31a29.13,29.13,0,0,1-5.73-.69c-5.29-1.15-8.61-4.48-10.22-9.61a36.56,36.56,0,0,1-1.55-10.73c-.06-11.37,0-22.74,0-34.1q0-20.37,0-40.73a41.68,41.68,0,0,1,1.51-12.17c2.16-7,7.14-11.08,14.51-11.52,4.95-.29,9.76.34,13.63,3.83a45.61,45.61,0,0,1,4.16,4.8A15,15,0,0,1,455.54,76.83Zm-21.15,50h0c0,11.87,0,23.75,0,35.63a26.68,26.68,0,0,0,.74,5.83,5.12,5.12,0,0,0,3.89,3.91c4.48,1.19,8.65.67,12.13-2.59,1.67-1.56,3.24-3.38,3.25-5.84q0-36.75,0-73.51a3.81,3.81,0,0,0-.2-1.39c-1.65-3.91-4.4-6.75-8.65-7.48-6.24-1.08-10.29.57-11.06,6.73a13.13,13.13,0,0,0-.1,1.54Q434.39,108.21,434.39,126.79Z" transform="translate(-28.37 -26.62)"/><path class="cls-1" d="M257.58,26.7c.34,0,.65-.08.95-.08,9.27,0,18.55,0,27.82.15a29.62,29.62,0,0,1,12.47,2.89c5.78,2.8,9.22,7.46,11,13.51a39.73,39.73,0,0,1,1.62,11.09c.06,10.61.08,21.23,0,31.85a38.2,38.2,0,0,1-2.2,12.64c-2.4,6.71-7.1,10.92-13.84,13a43.89,43.89,0,0,1-12.74,1.65c-3.23,0-6.46,0-9.84,0v78.35H257.58Zm15.28,15.22V98.44c4.12,0,8.16.22,12.16,0,6.43-.43,9.71-3.32,11-9.16a13.77,13.77,0,0,0,.35-2.69c.05-10.18.1-20.36.07-30.54a26.73,26.73,0,0,0-.57-5.27c-.91-4.56-3.6-7.69-8.28-8.2C282.71,42,277.81,42.1,272.86,41.92Z" transform="translate(-28.37 -26.62)"/><path class="cls-1" d="M111,145.08a22.25,22.25,0,0,1,5.41-43.84,22.27,22.27,0,0,1,5.44,43.85v23.68a23.13,23.13,0,0,1,10.27,6.3l34.95-35.24a21.21,21.21,0,0,1-6.3-9.3c-4.8-14,5.07-27.76,18.18-28.94,5.19-.47,10.37-.17,15.21,2.2a22.17,22.17,0,0,1-13,41.83,6.7,6.7,0,0,0-6.56,2.18c-11.85,12-23.88,23.89-35.87,35.79a2,2,0,0,0-.67,2.15c3.16,14.33-8.57,27.72-23.24,26.73a22.18,22.18,0,0,1-5-43.31c.88-.27,1.22-.61,1.21-1.6,0-7.14,0-14.29,0-21.43Zm16.73-21.46a11.38,11.38,0,0,0-11.3-11.42,11.38,11.38,0,0,0-.1,22.76A11.47,11.47,0,0,0,127.73,123.62Zm54.37-11.41a11.38,11.38,0,1,0,11.19,11.43A11.45,11.45,0,0,0,182.1,112.21Zm-54.37,78a11.34,11.34,0,1,0-22.68.1,11.34,11.34,0,0,0,22.68-.1Z" transform="translate(-28.37 -26.62)"/><path class="cls-1" d="M408.26,129.74q0,19.19,0,38.36a36.27,36.27,0,0,1-1.84,12.57,18.14,18.14,0,0,1-13.81,12.16,32.3,32.3,0,0,1-15.81-.31c-6.89-1.91-11-6.57-13-13.3a38.1,38.1,0,0,1-1.34-10.88q0-38.72,0-77.42a35,35,0,0,1,2-12.89A17.93,17.93,0,0,1,378.4,66.3a31.82,31.82,0,0,1,15.69.48c6.83,2,10.88,6.79,12.85,13.49a39.75,39.75,0,0,1,1.32,11.12Q408.28,110.58,408.26,129.74Zm-13.44.15q0-19.06,0-38.12a28.81,28.81,0,0,0-.46-5.17c-.61-3.21-2-6-5.64-6.43a29.35,29.35,0,0,0-6.69,0,5.74,5.74,0,0,0-5.1,4.64,27.57,27.57,0,0,0-1,6.63q-.1,38.46,0,76.94a27.25,27.25,0,0,0,.46,4.93c.57,3,2.15,5.33,5.39,5.81a29,29,0,0,0,6.11.22c3.48-.21,5.57-2.26,6.24-5.6a30.84,30.84,0,0,0,.65-6C394.84,155.14,394.82,142.51,394.82,129.89Z" transform="translate(-28.37 -26.62)"/><path class="cls-1" d="M766.15,129.74q0,19.24,0,38.47a36.13,36.13,0,0,1-1.85,12.46,18.11,18.11,0,0,1-13.69,12.13,32.12,32.12,0,0,1-16-.31c-6.89-1.94-11-6.65-12.92-13.38a38.85,38.85,0,0,1-1.29-10.89q0-38.58,0-77.18a35.68,35.68,0,0,1,2-12.79,18,18,0,0,1,14.08-12,32,32,0,0,1,15.46.47c6.84,2,10.93,6.71,12.93,13.4a39,39,0,0,1,1.36,11.12Q766.17,110.5,766.15,129.74Zm-32.35.06c0,12.75,0,25.49,0,38.24a32,32,0,0,0,.44,5.17c.57,3.55,2.45,5.53,6,6a27.13,27.13,0,0,0,6.11,0,5.75,5.75,0,0,0,5.33-4.51,26.59,26.59,0,0,0,.94-6.51q.09-38.46,0-76.94a22.17,22.17,0,0,0-.47-4.81c-1-4.25-2.61-6.1-6.8-6.51a24.72,24.72,0,0,0-4.71.05,6.23,6.23,0,0,0-6,5,29.79,29.79,0,0,0-.88,6.64C733.76,104.39,733.8,117.1,733.8,129.8Z" transform="translate(-28.37 -26.62)"/><path class="cls-1" d="M566.74,131H536c0,.49-.08.9-.08,1.32,0,12,0,23.91,0,35.87a22.29,22.29,0,0,0,1,6.49,6.84,6.84,0,0,0,6.94,4.87,14.19,14.19,0,0,0,3.06-.18c3.75-.78,6-3.32,6.54-7.42a28.23,28.23,0,0,0,.26-4c0-8.4,0-16.81,0-25.22v-1.36h13c0,.31.06.58.06.85,0,9.55,0,19.1-.06,28.65a29.44,29.44,0,0,1-2.27,11.29c-2.76,6.5-7.84,10-14.67,11.08a29,29,0,0,1-13.69-.83c-5.49-1.79-9-5.56-11-10.88a37.82,37.82,0,0,1-2-13.5q0-38.24,0-76.48c0-5,.45-9.85,2.45-14.48A17.81,17.81,0,0,1,539.9,66a29.06,29.06,0,0,1,13.46.9c5.7,1.8,9.39,5.73,11.46,11.26a30,30,0,0,1,1.91,10.42c.09,13.93.06,27.86.07,41.79C566.8,130.5,566.77,130.65,566.74,131Zm-13-10.08v-1.22c0-9.43,0-18.86,0-28.29a22.75,22.75,0,0,0-.33-4.12c-1-5.49-4.75-7.7-10.31-7.12a6.89,6.89,0,0,0-6.44,5.54,24.36,24.36,0,0,0-.71,5.83c-.07,9.35,0,18.7,0,28.05v1.33Z" transform="translate(-28.37 -26.62)"/><path class="cls-1" d="M622.57,109.67H610v-1.43c0-6.64.11-13.27-.11-19.9-.25-7.56-7.44-10.66-13.56-7.89-2.72,1.23-3.77,3.67-4.16,6.45a21,21,0,0,0-.21,3.07c0,4.58.1,9.16,0,13.74a17,17,0,0,0,5,12.81,142.24,142.24,0,0,0,11.58,10.65,46.09,46.09,0,0,1,11.71,14,28.61,28.61,0,0,1,2.89,12.69c.17,6.71.15,13.42,0,20.13a23.92,23.92,0,0,1-2.21,9.74c-2.11,4.54-5.83,7.19-10.49,8.53a34,34,0,0,1-18,.47,16.51,16.51,0,0,1-12.72-12.81,46.08,46.08,0,0,1-1.18-9.59c-.18-6.27,0-12.55-.07-18.83,0-.87.16-1.26,1.16-1.24,3.43.06,6.86,0,10.3,0,.3,0,.61.05,1,.09v1.32c0,6,0,12.08,0,18.12,0,3.36.86,6.34,3.64,8.46,3.09,2.36,6.55,2.41,10,1.13,3.19-1.19,4.42-4,4.64-7.11s.16-6.31.2-9.47c0-2.17,0-4.34,0-6.51a19.42,19.42,0,0,0-4.55-13,118.75,118.75,0,0,0-12.08-12.49,137.14,137.14,0,0,1-9.65-10.23c-3.18-3.68-4.32-8.25-4.43-13-.16-7.37-.13-14.75,0-22.13a24.6,24.6,0,0,1,2.15-9.52c2.37-5.4,6.77-8.29,12.31-9.56a36.66,36.66,0,0,1,16.54.17c6.67,1.51,10.51,5.86,11.79,12.39a64.84,64.84,0,0,1,1.14,10.68c.18,6.31,0,12.63,0,18.94C622.64,108.91,622.6,109.25,622.57,109.67Z" transform="translate(-28.37 -26.62)"/><path class="cls-1" d="M678.33,109.67H665.78v-1.33c0-6.16,0-12.31,0-18.47a11,11,0,0,0-2.31-7.4c-3.49-4.2-11.3-4-14.12.49a10.17,10.17,0,0,0-1.48,4.89c-.18,6.11-.12,12.23-.07,18.35,0,3.75,1.79,6.77,4.21,9.51a117.6,117.6,0,0,0,12.54,11.7,46.1,46.1,0,0,1,11.23,13.31,25.15,25.15,0,0,1,3,11.46q.28,11.65,0,23.31a19,19,0,0,1-3.36,10.45c-2.53,3.68-6.22,5.6-10.44,6.61a34,34,0,0,1-17.21,0,16.45,16.45,0,0,1-12.2-12.45,42.15,42.15,0,0,1-1.2-9.23c-.18-6.55-.06-13.1-.06-19.65v-.9H646.7v19a11.66,11.66,0,0,0,2.35,7.74c3.47,4.29,12.17,4,14.67-.57a12.94,12.94,0,0,0,1.42-6.26c0-5,0-10,0-14.92.06-4.76-1.85-8.7-4.73-12.32a87.12,87.12,0,0,0-11.1-11.46A76.16,76.16,0,0,1,638.4,119.9a19.73,19.73,0,0,1-3.83-11.49c-.23-7.22-.27-14.44-.22-21.66a28.75,28.75,0,0,1,1.74-9.5,16.06,16.06,0,0,1,11.24-10.43,34.78,34.78,0,0,1,19.27.06c6.26,1.71,9.53,6.22,10.72,12.29a62.44,62.44,0,0,1,1,10.22c.16,6.42,0,12.86,0,19.29C678.4,109,678.35,109.3,678.33,109.67Z" transform="translate(-28.37 -26.62)"/><path class="cls-1" d="M57.12,104.32a56,56,0,0,1,6.11,3.37c7.08,5.06,10.18,12,9.36,20.68A22.13,22.13,0,0,1,55,147.61c-10.14,2.08-20.95-3.55-24.79-13.16a21.61,21.61,0,0,1,2.64-21.85A20.65,20.65,0,0,1,45,104.45a1.46,1.46,0,0,0,1.35-1.73c-.06-6.87,0-13.73,0-20.6v-1a65.23,65.23,0,0,1-6.67-2.86,22.17,22.17,0,1,1,18.69,1.58,1.56,1.56,0,0,0-1.19,1.77c0,7.26,0,14.52,0,21.78ZM39.27,125.76a11.34,11.34,0,1,0,11.34-11.39A11.32,11.32,0,0,0,39.27,125.76ZM62.19,59.08A11.33,11.33,0,1,0,50.88,70.46,11.29,11.29,0,0,0,62.19,59.08Z" transform="translate(-28.37 -26.62)"/><path class="cls-1" d="M182.08,81.34c-9.28.18-18.46-6.49-21.06-15.42a1.63,1.63,0,0,0-1.91-1.44c-6.67.06-13.34,0-20,0a1.41,1.41,0,0,0-1.66,1.15,22.14,22.14,0,0,1-23.71,15.53c-12.58-1.33-21.47-13.43-19.28-25.93a22.16,22.16,0,0,1,31.9-15.87,21.21,21.21,0,0,1,11,12.89,1.76,1.76,0,0,0,2,1.47c6.67-.07,13.34-.06,20,0a1.32,1.32,0,0,0,1.53-1.13,22.15,22.15,0,1,1,24.34,28.49C184.21,81.24,183.14,81.26,182.08,81.34ZM182,70.17a11.34,11.34,0,0,0,11.31-11.4A11.37,11.37,0,1,0,182,70.17Zm-65.61,0a11.34,11.34,0,1,0,0-22.68,11.45,11.45,0,0,0-11.34,11.3A11.32,11.32,0,0,0,116.38,70.17Z" transform="translate(-28.37 -26.62)"/><path class="cls-1" d="M496.57,191.77H482.81V67.68a9.63,9.63,0,0,1,1-.09c3.15,0,6.31,0,9.47,0,.87,0,1.19.27,1.23,1.11.11,2.13.27,4.25.42,6.37,0,.34.07.67.1.86a52.78,52.78,0,0,1,4.33-5.47c3.84-3.78,8.6-4.66,13.78-3.69.8.15,1.14.55,1.13,1.46-.06,4.42,0,8.84,0,13.26,0,.3,0,.6-.05.85-4.62-1.61-9.08-1.69-13.32,1a11,11,0,0,0-4.14,5.18,4.23,4.23,0,0,0-.14,1.64V191.77Z" transform="translate(-28.37 -26.62)"/><path class="cls-1" d="M336,191.77H322.23V67.68h11.6c.21,2.79.41,5.56.64,8.7l.95-1.7a15.36,15.36,0,0,1,16-8.18c.39,0,.77.17,1.15.25.81.17,1.12.58,1.11,1.47-.05,4.69,0,9.39,0,14.2a14.88,14.88,0,0,0-8.44-1,11.22,11.22,0,0,0-9,7A4.13,4.13,0,0,0,336,90q0,50,0,100Z" transform="translate(-28.37 -26.62)"/><path class="cls-1" d="M706.2,191.74H692.55v-124H706.2Z" transform="translate(-28.37 -26.62)"/><path class="cls-1" d="M181.9,212.66a22.19,22.19,0,1,1,22.26-22.19A22.28,22.28,0,0,1,181.9,212.66Zm0-11.13a11.34,11.34,0,1,0-.09-22.68,11.27,11.27,0,0,0-11.25,11.31A11.38,11.38,0,0,0,182,201.53Z" transform="translate(-28.37 -26.62)"/><path class="cls-1" d="M50.8,212.66a22.18,22.18,0,1,1,22.27-22.15A22.18,22.18,0,0,1,50.8,212.66ZM62.19,190.2a11.34,11.34,0,1,0-22.68,0,11.34,11.34,0,0,0,22.68,0Z" transform="translate(-28.37 -26.62)"/><path class="cls-1" d="M706.23,26.71V51.65H692.56V26.71Z" transform="translate(-28.37 -26.62)"/></g></svg>